<mxfile host="app.diagrams.net" modified="2024-03-06T03:57:37.012Z" agent="Mozilla/5.0 (Windows NT 10.0; Win64; x64) AppleWebKit/537.36 (KHTML, like Gecko) Chrome/122.0.0.0 Safari/537.36" etag="i3Hh46TEfBWZYXAACu3u" version="24.0.2" type="github">
  <diagram name="PÃ¡gina-1" id="v4Cm_rU6OyFCTTDWilgd">
    <mxGraphModel dx="2577" dy="942" grid="1" gridSize="10" guides="1" tooltips="1" connect="1" arrows="1" fold="1" page="1" pageScale="1" pageWidth="827" pageHeight="1169" math="0" shadow="0">
      <root>
        <mxCell id="0" />
        <mxCell id="1" parent="0" />
        <mxCell id="zrWadxQEUu6Bfn9rxmXO-1" value="" style="shape=image;verticalLabelPosition=bottom;labelBackgroundColor=default;verticalAlign=top;aspect=fixed;imageAspect=0;image=https://upload.wikimedia.org/wikipedia/commons/thumb/a/a7/React-icon.svg/2300px-React-icon.svg.png;" vertex="1" parent="1">
          <mxGeometry x="-180" y="320" width="207.09" height="180" as="geometry" />
        </mxCell>
        <mxCell id="zrWadxQEUu6Bfn9rxmXO-2" value="" style="shape=image;verticalLabelPosition=bottom;labelBackgroundColor=default;verticalAlign=top;aspect=fixed;imageAspect=0;image=https://cdn.icon-icons.com/icons2/2415/PNG/512/android_original_logo_icon_146653.png;" vertex="1" parent="1">
          <mxGeometry x="270" y="90" width="182" height="182" as="geometry" />
        </mxCell>
        <mxCell id="zrWadxQEUu6Bfn9rxmXO-3" value="" style="shape=image;verticalLabelPosition=bottom;labelBackgroundColor=default;verticalAlign=top;aspect=fixed;imageAspect=0;image=https://i.pinimg.com/originals/ca/86/fb/ca86fb1a51f4761d1246518ee7640010.png;" vertex="1" parent="1">
          <mxGeometry x="279.5" y="486" width="163" height="196.98" as="geometry" />
        </mxCell>
        <mxCell id="zrWadxQEUu6Bfn9rxmXO-4" value="" style="curved=1;endArrow=classic;html=1;rounded=0;exitX=1;exitY=0;exitDx=0;exitDy=0;entryX=0;entryY=0.5;entryDx=0;entryDy=0;fillColor=#dae8fc;strokeColor=#6c8ebf;strokeWidth=10;" edge="1" parent="1" source="zrWadxQEUu6Bfn9rxmXO-1" target="zrWadxQEUu6Bfn9rxmXO-2">
          <mxGeometry width="50" height="50" relative="1" as="geometry">
            <mxPoint x="430" y="370" as="sourcePoint" />
            <mxPoint x="480" y="320" as="targetPoint" />
            <Array as="points">
              <mxPoint x="70" y="270" />
              <mxPoint x="170" y="210" />
            </Array>
          </mxGeometry>
        </mxCell>
        <mxCell id="zrWadxQEUu6Bfn9rxmXO-5" value="" style="curved=1;endArrow=classic;html=1;rounded=0;exitX=1;exitY=1;exitDx=0;exitDy=0;fillColor=#dae8fc;strokeColor=#6c8ebf;strokeWidth=10;entryX=0;entryY=0.5;entryDx=0;entryDy=0;" edge="1" parent="1" source="zrWadxQEUu6Bfn9rxmXO-1" target="zrWadxQEUu6Bfn9rxmXO-3">
          <mxGeometry width="50" height="50" relative="1" as="geometry">
            <mxPoint x="20" y="585" as="sourcePoint" />
            <mxPoint x="260" y="600" as="targetPoint" />
            <Array as="points">
              <mxPoint x="43" y="525" />
              <mxPoint x="120" y="570" />
              <mxPoint x="190" y="590" />
            </Array>
          </mxGeometry>
        </mxCell>
        <mxCell id="zrWadxQEUu6Bfn9rxmXO-6" value="" style="curved=1;endArrow=classic;html=1;rounded=0;fillColor=#dae8fc;strokeColor=#6c8ebf;strokeWidth=10;exitX=1;exitY=0.5;exitDx=0;exitDy=0;" edge="1" parent="1" source="zrWadxQEUu6Bfn9rxmXO-2">
          <mxGeometry width="50" height="50" relative="1" as="geometry">
            <mxPoint x="520" y="172" as="sourcePoint" />
            <mxPoint x="660" y="240" as="targetPoint" />
            <Array as="points">
              <mxPoint x="500" y="180" />
              <mxPoint x="550" y="180" />
              <mxPoint x="600" y="200" />
            </Array>
          </mxGeometry>
        </mxCell>
        <mxCell id="zrWadxQEUu6Bfn9rxmXO-8" value="" style="endArrow=classic;html=1;rounded=0;exitX=1;exitY=0.5;exitDx=0;exitDy=0;strokeWidth=10;fillColor=#dae8fc;strokeColor=#6c8ebf;" edge="1" parent="1" source="zrWadxQEUu6Bfn9rxmXO-3">
          <mxGeometry width="50" height="50" relative="1" as="geometry">
            <mxPoint x="490" y="340" as="sourcePoint" />
            <mxPoint x="660" y="530" as="targetPoint" />
            <Array as="points">
              <mxPoint x="500" y="580" />
              <mxPoint x="560" y="570" />
            </Array>
          </mxGeometry>
        </mxCell>
        <mxCell id="zrWadxQEUu6Bfn9rxmXO-9" value="" style="shape=image;verticalLabelPosition=bottom;labelBackgroundColor=default;verticalAlign=top;aspect=fixed;imageAspect=0;image=https://tm.ibxk.com.br/2021/10/21/21122556259195.jpg;clipPath=inset(2.66% 24.67% 0.3% 25.33%);" vertex="1" parent="1">
          <mxGeometry x="710" y="130" width="496.6463414634147" height="543" as="geometry" />
        </mxCell>
        <mxCell id="zrWadxQEUu6Bfn9rxmXO-10" value="&lt;h1 style=&quot;font-size: 31px;&quot;&gt;Acesso a recursos nativos dos dispositivos&amp;nbsp;&lt;/h1&gt;" style="text;html=1;spacing=5;spacingTop=-20;whiteSpace=wrap;overflow=hidden;rounded=0;fillColor=#647687;strokeColor=#314354;fontColor=#ffffff;align=center;fontSize=31;labelBackgroundColor=none;labelBorderColor=none;fontFamily=Verdana;fontStyle=1" vertex="1" parent="1">
          <mxGeometry x="390" y="300" width="300" height="150" as="geometry" />
        </mxCell>
      </root>
    </mxGraphModel>
  </diagram>
</mxfile>
